<svg width="23" height="12" viewBox="0 0 23 12" fill="none" xmlns="http://www.w3.org/2000/svg">
<path d="M1.44925 7.659C1.25125 7.51967 1.08258 7.35467 0.943247 7.164C0.62058 6.70933 0.459247 6.13367 0.459247 5.437C0.459247 4.63033 0.693913 4.00333 1.16325 3.556C1.58125 3.16 2.14225 2.962 2.84625 2.962C3.13958 2.962 3.45125 2.99867 3.78125 3.072L3.78125 3.842C3.46591 3.76867 3.18725 3.732 2.94525 3.732C1.91858 3.732 1.40525 4.31867 1.40525 5.492C1.40525 6.00533 1.53358 6.405 1.79025 6.691C2.05425 6.977 2.42091 7.12 2.89025 7.12C2.94158 7.12 2.99658 7.12 3.05525 7.12C3.80325 7.01733 4.39358 6.966 4.82625 6.966C4.85558 6.966 4.89225 6.966 4.93625 6.966L4.93625 7.296L4.55125 7.769C3.92791 7.769 3.27525 7.87167 2.59325 8.077C1.88925 8.28967 1.26591 8.57933 0.723247 8.946L0.316246 8.297C0.56558 8.11367 0.943247 7.901 1.44925 7.659ZM6.77428 0.124L6.77428 6.801C6.77428 6.91833 6.81095 7.01733 6.88428 7.098C6.96495 7.17867 7.06761 7.219 7.19228 7.219L7.33528 7.219L7.33528 8L6.82928 8C6.59461 8 6.38928 7.923 6.21328 7.769C5.96395 7.55633 5.83928 7.285 5.83928 6.955L5.83928 0.124L6.77428 0.124ZM11.2859 0.52C11.4326 0.52 11.5572 0.575 11.6599 0.685C11.7699 0.787666 11.8249 0.912333 11.8249 1.059C11.8249 1.213 11.7699 1.345 11.6599 1.455C11.5572 1.55767 11.4326 1.609 11.2859 1.609C11.1319 1.609 11.0036 1.55767 10.9009 1.455C10.7982 1.345 10.7469 1.213 10.7469 1.059C10.7469 0.912333 10.7982 0.787666 10.9009 0.685C11.0036 0.575 11.1319 0.52 11.2859 0.52ZM9.55891 7.219C9.09691 6.713 8.86591 6.08967 8.86591 5.349C8.86591 4.63767 9.06024 4.05467 9.44891 3.6C9.89624 3.072 10.4902 2.808 11.2309 2.808C11.8249 2.808 12.3309 2.984 12.7489 3.336C13.3209 3.81267 13.6069 4.48367 13.6069 5.349C13.6069 6.08233 13.3759 6.70567 12.9139 7.219L13.8709 7.219L13.8709 8L12.2869 8L12.1659 8C11.7332 8 11.4289 7.97067 11.2529 7.912L11.2089 7.912C11.0329 7.97067 10.7286 8 10.2959 8L10.1639 8L7.17191 8L7.17191 7.219L9.55891 7.219ZM11.2309 3.6C10.7836 3.6 10.4316 3.75767 10.1749 4.073C9.92558 4.38833 9.80091 4.82467 9.80091 5.382C9.80091 5.888 9.93658 6.317 10.2079 6.669C10.4866 7.021 10.8276 7.20433 11.2309 7.219C11.6342 7.20433 11.9716 7.021 12.2429 6.669C12.5216 6.317 12.6609 5.888 12.6609 5.382C12.6609 4.82467 12.5326 4.38833 12.2759 4.073C12.0266 3.75767 11.6782 3.6 11.2309 3.6ZM17.1771 0.52C17.3311 0.52 17.4594 0.575 17.5621 0.685C17.6648 0.787666 17.7161 0.912333 17.7161 1.059C17.7161 1.213 17.6648 1.345 17.5621 1.455C17.4594 1.55767 17.3311 1.609 17.1771 1.609C17.0304 1.609 16.9021 1.55767 16.7921 1.455C16.6894 1.345 16.6381 1.213 16.6381 1.059C16.6381 0.912333 16.6894 0.787666 16.7921 0.685C16.9021 0.575 17.0304 0.52 17.1771 0.52ZM15.1641 3.127C15.8388 2.91433 16.4694 2.808 17.0561 2.808C17.9654 2.808 18.6584 3.09033 19.1351 3.655C19.5458 4.139 19.7511 4.77333 19.7511 5.558L19.7511 6.955C19.7511 7.20433 19.6741 7.42433 19.5201 7.615C19.3294 7.87167 19.0764 8 18.7611 8L13.7011 8L13.7011 7.219L18.3981 7.219C18.6768 7.219 18.8161 7.07967 18.8161 6.801L18.8161 5.525C18.8161 4.953 18.6658 4.502 18.3651 4.172C18.0351 3.80533 17.5548 3.622 16.9241 3.622C16.5428 3.622 15.9561 3.70267 15.1641 3.864L15.1641 3.127ZM21.9683 0.124L21.9683 7.89L21.4953 8.275L21.0333 8.275L21.0333 0.124L21.9683 0.124ZM20.6923 10.86C20.5383 10.662 20.4613 10.42 20.4613 10.134C20.4613 9.848 20.5456 9.617 20.7143 9.441C20.883 9.27233 21.1066 9.188 21.3853 9.188C21.554 9.188 21.73 9.21733 21.9133 9.276L21.9133 9.727C21.7813 9.69033 21.653 9.672 21.5283 9.672C21.147 9.672 20.9563 9.86633 20.9563 10.255C20.9563 10.3943 21.004 10.5227 21.0993 10.64C21.2166 10.7867 21.3743 10.86 21.5723 10.86L22.2763 10.86L22.2763 11.047L22.0563 11.311L20.2083 11.311L20.2083 10.86L20.6923 10.86Z" fill="white"/>
</svg>
